<svg width="178" height="178" viewBox="0 0 178 178" fill="none" xmlns="http://www.w3.org/2000/svg">
<circle cx="89" cy="89" r="89" fill="#686178"/>
<mask id="mask0" mask-type="alpha" maskUnits="userSpaceOnUse" x="0" y="0" width="178" height="178">
<circle cx="89" cy="89" r="89" fill="#73668D"/>
</mask>
<g mask="url(#mask0)">
<path d="M176.21 85.7952L148.731 106.09L157.186 116.661L176.633 128.499L198.193 165.284L205.38 172.049L213.412 179.66H279.361L238.354 147.949L219.753 118.775L195.657 112.01L176.21 85.7952Z" fill="#AAA3BA"/>
<path d="M15.6722 125.98L14.4045 121.753L24.9685 111.187L39.3356 99.7744L53.7026 90.0529L80.7464 77.7954L102.719 48.2083L114.974 58.3524L128.073 80.3314L139.06 85.8262L142.018 99.3517L148.778 106.114L156.807 116.259L176.667 128.516L191.034 151.34L198.218 165.289L205.824 170.783L213.43 179.66L82.4366 178.814L58.7733 165.289L38.4904 157.681L26.6588 147.114L15.6722 125.98Z" fill="#C0BACD"/>
<path d="M23.2437 128.14L15.2168 122.648L6.34496 112.085L-9.70888 128.985L-16.4684 133.632L-29.9874 152.222L-45.6188 170.388L-58.7153 178.838H82.3895L61.266 163.206L40.1425 156.446L29.5808 146.307L26.201 136.59L23.2437 128.14Z" fill="#D0CBDC"/>
</g>
</svg>
