<svg width="1110" height="432" viewBox="0 0 1110 432" fill="none" xmlns="http://www.w3.org/2000/svg">
<path d="M770.887 123.829L680.718 190.425L708.463 225.111L772.275 263.959L843.023 384.665L866.606 406.863L892.963 431.837H1109.37L974.809 327.78L913.771 232.048L834.7 209.849L770.887 123.829Z" fill="#AAA3BA"/>
<path d="M244.096 255.692L239.936 241.823L274.601 207.149L321.745 169.701L368.89 137.8L457.631 97.5783L529.734 0.490723L569.945 33.7779L612.93 105.9L648.981 123.931L658.687 168.314L680.873 190.505L707.218 223.792L772.388 264.014L819.532 338.91L843.104 384.68L868.063 402.711L893.022 431.837L463.178 429.063L385.529 384.68L318.972 359.715L280.148 325.041L244.096 255.692Z" fill="#C0BACD"/>
<path d="M268.942 262.779L242.602 244.757L213.49 210.098L160.81 265.552L138.63 280.802L94.2682 341.801L42.9752 401.414L0 429.141H463.023L393.708 377.846L324.394 355.665L289.736 322.392L278.646 290.506L268.942 262.779Z" fill="#D0CBDC"/>
</svg>
