<svg fill="none" height="432" viewBox="0 0 1110 432" width="1110" xmlns="http://www.w3.org/2000/svg"><path d="m770.887 123.829-90.169 66.596 27.745 34.686 63.812 38.848 70.748 120.706 23.583 22.198 26.357 24.974h216.407l-134.561-104.057-61.038-95.732-79.071-22.199z" fill="#aaa3ba"/><path d="m244.096 255.692-4.16-13.869 34.665-34.674 47.144-37.448 47.145-31.901 88.741-40.2217 72.103-97.087577 40.211 33.287177 42.985 72.1221 36.051 18.031 9.706 44.383 22.186 22.191 26.345 33.287 65.17 40.222 47.144 74.896 23.572 45.77 24.959 18.031 24.959 29.126-429.844-2.774-77.649-44.383-66.557-24.965-38.824-34.674z" fill="#c0bacd"/><path d="m268.942 262.779-26.34-18.022-29.112-34.659-52.68 55.454-22.18 15.25-44.3618 60.999-51.293 59.613-42.9752 27.727h463.023l-69.315-51.295-69.314-22.181-34.658-33.273-11.09-31.886z" fill="#d0cbdc"/></svg>