<svg width="166" height="232" viewBox="0 0 166 232" fill="none" xmlns="http://www.w3.org/2000/svg">
<g clip-path="url(#clip0)">
<path d="M158.638 146.096C166.611 172.791 131.403 205.759 95.4984 205.759C59.594 205.759 77.5925 171.461 64.0751 147.104C51.7044 124.814 96.7292 146.528 116.152 106.082C135.814 108.736 154.81 132.336 158.638 146.096Z" fill="url(#paint0_linear)"/>
<path d="M55.1255 0.000179738C55.1255 0.000179738 53.6453 5.47894 53.3839 9.16395C53.1364 12.6525 56.3817 19.1962 56.3817 19.1962L29.4531 18.7871C29.4531 18.7871 20.1481 28.1311 14.7265 31.8106C10.174 34.9003 1.5037e-09 39.2615 1.5037e-09 39.2615C1.5037e-09 39.2615 -0.0033112 50.6762 9.81722 62.1932C17.3926 71.0772 31.5395 70.4245 31.5395 70.4245L52.8402 52.0905L59.967 52.0536L65.4053 54.9115L7.96763 163.023C13.2953 210.388 44.0592 230.798 82.17 231.96C120.281 233.122 155.236 208.87 166 163.023C163.156 144.836 152.231 131.29 145.774 125.582L134.688 128.266C141.551 130.141 127.967 132.935 131.728 138.979C135.49 145.024 136.876 152.507 135.532 159.5C134.187 166.494 129.992 173.023 124.391 177.141C118.79 181.259 111.31 183.312 104.242 182.504C98.3065 181.825 96.8011 181.004 92.1759 177.22C87.5506 173.435 83.9448 168.47 81.4767 163.025C76.5404 152.133 76.1923 139.633 78.0681 127.821C79.9438 116.01 83.9182 104.654 87.3768 93.2065C90.8353 81.7586 93.8144 69.9825 93.6015 58.0245C93.4439 49.1725 91.4585 40.4071 87.9664 32.2752C82.242 22.3777 73.6324 19.1961 73.6324 19.1961C73.6324 19.1961 72.3934 17.8367 71.8821 17.0759C69.9051 14.1341 69.0553 10.9838 66.846 7.71009C62.0524 0.606868 55.1255 0 55.1255 0V0.000179738Z" fill="url(#paint1_linear)"/>
<path opacity="0.391026" d="M5.55679 56.1649L41.9255 41.898L58.8308 20.7623L56.3817 19.1964L29.4531 18.7871C29.4531 18.7871 20.1811 28.2735 14.7265 31.9654C10.1891 35.0363 0 39.2614 0 39.2614C0 39.2614 0.0220072 41.199 0.728161 44.2808C1.43395 47.3626 5.55679 51.5884 5.55679 56.1648V56.1649Z" fill="url(#paint2_linear)"/>
<path d="M116.06 108.361L114.903 94.462C114.903 94.462 124.027 90.3932 134.314 90.7413C143.866 91.0647 151.922 99.68 151.922 99.68C151.922 99.68 143.065 106.408 139.379 110.528C135.902 114.415 130.517 123.424 130.517 123.424L116.06 108.361Z" fill="#FFA945"/>
</g>
<defs>
<linearGradient id="paint0_linear" x1="124.586" y1="130.462" x2="80.0566" y2="165.051" gradientUnits="userSpaceOnUse">
<stop stop-color="#FFA945"/>
<stop offset="1" stop-color="#7D1E03"/>
</linearGradient>
<linearGradient id="paint1_linear" x1="-32.7464" y1="181.874" x2="131.542" y2="163.696" gradientUnits="userSpaceOnUse">
<stop stop-color="#FF8138"/>
<stop offset="1" stop-color="#FFA945"/>
</linearGradient>
<linearGradient id="paint2_linear" x1="38.8129" y1="41.3465" x2="32.4709" y2="17.7021" gradientUnits="userSpaceOnUse">
<stop stop-color="#FF5B09" stop-opacity="0"/>
<stop offset="1" stop-color="#FF5858"/>
</linearGradient>
<clipPath id="clip0">
<rect width="166" height="232" fill="white"/>
</clipPath>
</defs>
</svg>
