<svg width="145" height="202" viewBox="0 0 145 202" fill="none" xmlns="http://www.w3.org/2000/svg">
<path d="M138.135 127.086C145.077 150.308 114.419 178.986 83.1555 178.986C51.8916 178.986 67.5638 149.151 55.7935 127.964C45.0217 108.573 84.2272 127.462 101.14 92.2788C118.26 94.5873 134.801 115.117 138.135 127.086Z" fill="url(#paint0_linear)"/>
<path d="M48.0008 0.000156352C48.0008 0.000156352 46.7118 4.76605 46.4842 7.97158C46.2687 11.0063 49.0946 16.6985 49.0946 16.6985L25.6464 16.3426C25.6464 16.3426 17.544 24.4709 12.8232 27.6716C8.85901 30.3592 1.30935e-09 34.153 1.30935e-09 34.153C1.30935e-09 34.153 -0.00288324 44.0825 8.54838 54.1009C15.1447 61.829 27.4631 61.2612 27.4631 61.2612L46.0108 45.3127L52.2165 45.2807L56.9519 47.7667L6.93784 141.811C11.5769 183.014 38.3647 200.768 71.5498 201.779C104.735 202.789 135.172 181.693 144.545 141.811C142.069 125.991 132.555 114.207 126.934 109.242L117.28 111.576C123.256 113.208 111.428 115.638 114.703 120.896C117.978 126.154 119.186 132.664 118.015 138.747C116.844 144.83 113.191 150.511 108.314 154.093C103.436 157.675 96.9234 159.461 90.7688 158.758C85.6007 158.167 84.2899 157.453 80.2625 154.161C76.235 150.869 73.0953 146.55 70.9461 141.813C66.6478 132.338 66.3447 121.464 67.978 111.19C69.6113 100.915 73.0721 91.0372 76.0836 81.0789C79.0952 71.1206 81.6892 60.8767 81.5039 50.4747C81.3666 42.7744 79.6378 35.1495 76.5971 28.0757C71.6125 19.466 64.1157 16.6984 64.1157 16.6984C64.1157 16.6984 63.0368 15.5159 62.5916 14.8541C60.8701 12.2951 60.1302 9.55463 58.2064 6.7069C54.0323 0.527906 48.0008 0 48.0008 0V0.000156352Z" fill="url(#paint1_linear)"/>
<path opacity="0.391026" d="M4.83861 48.8575L36.5068 36.447L51.2271 18.0614L49.0946 16.6993L25.6464 16.3433C25.6464 16.3433 17.5728 24.5953 12.8232 27.8068C8.87226 30.4782 0 34.1534 0 34.1534C0 34.1534 0.0194882 35.8389 0.63406 38.5197C1.24862 41.2005 4.83861 44.8766 4.83861 48.8575Z" fill="url(#paint2_linear)"/>
<path d="M101.06 94.2611L100.053 82.1709C100.053 82.1709 107.997 78.6316 116.954 78.9344C125.272 79.2157 132.287 86.71 132.287 86.71C132.287 86.71 124.575 92.5625 121.365 96.1465C118.337 99.5273 113.649 107.364 113.649 107.364L101.06 94.2611Z" fill="#0A505D"/>
<defs>
<linearGradient id="paint0_linear" x1="108.484" y1="113.486" x2="69.7386" y2="143.612" gradientUnits="userSpaceOnUse">
<stop stop-color="#0A505D"/>
<stop offset="1" stop-color="#00191F"/>
</linearGradient>
<linearGradient id="paint1_linear" x1="-28.5141" y1="158.209" x2="114.537" y2="142.365" gradientUnits="userSpaceOnUse">
<stop stop-color="#0C6969"/>
<stop offset="1" stop-color="#0A505D"/>
</linearGradient>
<linearGradient id="paint2_linear" x1="33.7965" y1="35.9673" x2="28.2845" y2="15.3967" gradientUnits="userSpaceOnUse">
<stop stop-color="#002C31" stop-opacity="0"/>
<stop offset="1" stop-color="#009972"/>
</linearGradient>
</defs>
</svg>
